<svg xmlns="http://www.w3.org/2000/svg" xml:space="preserve" width="600px" height="600px"
  version="1.1"
  style="shape-rendering:geometricPrecision; text-rendering:geometricPrecision; image-rendering:optimizeQuality; fill-rule:evenodd; clip-rule:evenodd"
  viewBox="0 0 600 600" xmlns:xlink="http://www.w3.org/1999/xlink">
 <defs>
  <style type="text/css">
   
    .fil1 {fill:url(#id0)}
    .fil5 {fill:url(#id1)}
    .fil2 {fill:url(#id2)}
    .fil3 {fill:url(#id3)}
    .fil6 {fill:url(#id4)}
    .fil0 {fill:url(#id5)}
    .fil4 {fill:url(#id6)}
   
  </style>
  <linearGradient id="id0" gradientUnits="userSpaceOnUse" x1="455.014" y1="269.884" x2="543.414" y2="269.884">
   <stop offset="0" style="stop-opacity: 1; stop-color: rgb(74, 74, 74);" id="id_108"></stop>
   <stop offset="1" style="stop-opacity: 1; stop-color: rgb(0, 0, 0);" id="id_109"></stop>
  </linearGradient>
  <linearGradient id="id1" gradientUnits="userSpaceOnUse" xlink:href="#id0" x1="262.369" y1="119.4" x2="123.409" y2="119.4">
  </linearGradient>
  <linearGradient id="id2" gradientUnits="userSpaceOnUse" xlink:href="#id0" x1="337.64" y1="119.4" x2="476.599" y2="119.4">
  </linearGradient>
  <linearGradient id="id3" gradientUnits="userSpaceOnUse" xlink:href="#id0" x1="366.303" y1="190.313" x2="555.773" y2="190.313">
  </linearGradient>
  <linearGradient id="id4" gradientUnits="userSpaceOnUse" xlink:href="#id0" x1="233.706" y1="190.313" x2="44.2348" y2="190.313">
  </linearGradient>
  <linearGradient id="id5" gradientUnits="userSpaceOnUse" xlink:href="#id0" x1="138.962" y1="331.988" x2="464.949" y2="331.988">
  </linearGradient>
  <linearGradient id="id6" gradientUnits="userSpaceOnUse" xlink:href="#id0" x1="144.994" y1="269.884" x2="56.5939" y2="269.884">
  </linearGradient>
 </defs>
 <g id="Layer_x0020_1">
  <metadata id="CorelCorpID_0Corel-Layer"></metadata>
  <path class="fil0" d="M437 251c-5,25 -10,73 -4,130l-70 0 0 0 -122 0 0 0 -67 0c5,-44 3,-87 -6,-129l13 4c1,0 3,1 4,1 5,0 9,-3 12,-7l41 -64c3,-3 3,-7 2,-11 -1,-3 -3,-6 -6,-8l-1 -1c10,-5 19,-10 29,-14 4,-3 7,-7 7,-11 13,7 38,17 62,1 1,4 3,8 7,10 10,4 19,9 29,14l-1 1c-3,2 -5,5 -6,8 -1,4 -1,8 2,11l41 64c3,4 7,7 12,7 1,0 3,-1 4,-1l18 -5zm-92 62c12,0 22,-10 22,-22l0 -41c0,-12 -10,-22 -22,-22l-98 0c-12,0 -22,10 -22,22l0 41c0,12 10,22 22,22l98 0zm-98 -79l98 0c9,0 16,7 16,16l0 41c0,9 -7,16 -16,16l-98 0c-9,0 -16,-7 -16,-16l0 -41c0,-9 7,-16 16,-16zm187 152c4,36 13,76 30,116 1,2 1,4 0,6 -1,2 -2,3 -4,4 -1,0 -35,7 -94,10l0 -136 68 0zm-74 136c-15,1 -31,1 -49,1 -21,0 -43,0 -67,-2l0 -135 116 0 0 136zm-122 -1c-29,-2 -60,-5 -93,-9 -2,-1 -4,-2 -5,-4 -1,-2 -1,-4 0,-6 0,-1 25,-46 33,-116l65 0 0 135zm64 -30c2,0 3,-1 3,-2l0 -79c0,-1 -1,-3 -3,-3 -2,0 -3,2 -3,3l0 79c0,1 1,2 3,2zm32 -218c1,0 2,-1 2,-3 0,-1 -1,-2 -2,-2l-76 0c-1,0 -2,1 -2,2 0,2 1,3 2,3l76 0z" id="id_101"></path>
  <g id="_550357080">
   <g>
    <path class="fil1" d="M535 316c-1,0 -3,-1 -4,-1l-67 -44c-2,-1 -3,-3 -3,-4l-6 -22 72 -21c9,17 21,48 15,86 -1,2 -2,4 -4,5 -1,0 -2,1 -3,1z" id="id_102"></path>
    <path class="fil2" d="M477 124c0,-3 -1,-5 -3,-6 -30,-23 -63,-33 -88,-38l-35 -3c-4,-1 -7,2 -7,6l-6 56c-1,2 1,5 3,6 4,2 19,10 33,17l19 -11 84 -27z" id="id_103"></path>
    <path class="fil3" d="M415 250c-2,0 -5,-2 -6,-4l-42 -64c-1,-1 -1,-3 -1,-5 1,-2 2,-3 4,-4l26 -15 80 -27c35,21 76,66 78,68 2,2 2,4 2,6 -1,2 -3,4 -5,5l-134 39c-1,0 -1,1 -2,1z" id="id_104"></path>
   </g>
   <g>
    <path class="fil4" d="M65 316c1,0 3,-1 4,-1l67 -44c2,-1 3,-3 3,-4l6 -22 -72 -21c-9,17 -21,48 -15,86 1,2 2,4 4,5 1,0 2,1 3,1z" id="id_105"></path>
    <path class="fil5" d="M123 124c0,-3 1,-5 3,-6 30,-23 63,-33 88,-38l35 -3c4,-1 7,2 7,6l6 56c1,2 -1,5 -3,6 -4,2 -19,10 -33,17l-19 -11 -84 -27z" id="id_106"></path>
    <path class="fil6" d="M185 250c2,0 5,-2 6,-4l42 -64c1,-1 1,-3 1,-5 -1,-2 -2,-3 -4,-4l-26 -15 -80 -27c-35,21 -76,66 -78,68 -2,2 -2,4 -2,6 1,2 3,4 5,5l134 39c1,0 1,1 2,1z" id="id_107"></path>
   </g>
  </g>
 </g>
</svg>